<svg width="54" height="18" viewBox="0 0 54 18" fill="none" xmlns="http://www.w3.org/2000/svg">
<path d="M16.1341 14.2563C18.8221 14.2563 20.4187 12.1543 20.4187 8.5874C20.4187 5.08643 18.7195 3.16748 16.1927 3.16748C13.8929 3.16748 12.2669 4.71289 12.2669 6.87354C12.2669 8.90234 13.7317 10.3818 15.7459 10.3818C16.9837 10.3818 17.9871 9.81055 18.4852 8.80713H18.6097C18.5877 11.29 17.7015 12.7109 16.1561 12.7109C15.2479 12.7109 14.5228 12.2129 14.2957 11.4072H12.4134C12.721 13.1284 14.2005 14.2563 16.1341 14.2563ZM16.2 8.92432C14.9695 8.92432 14.1199 8.06006 14.1199 6.81494C14.1199 5.62109 15.0135 4.70557 16.2073 4.70557C17.4012 4.70557 18.2947 5.63574 18.2947 6.85156C18.2947 8.05273 17.4231 8.92432 16.2 8.92432ZM23.4366 7.15918C24.1324 7.15918 24.6085 6.67578 24.6085 6.02393C24.6085 5.37207 24.1324 4.88867 23.4366 4.88867C22.7481 4.88867 22.2647 5.37207 22.2647 6.02393C22.2647 6.67578 22.7481 7.15918 23.4366 7.15918ZM23.4366 12.5352C24.1324 12.5352 24.6085 12.0444 24.6085 11.3999C24.6085 10.748 24.1324 10.2646 23.4366 10.2646C22.7481 10.2646 22.2647 10.748 22.2647 11.3999C22.2647 12.0444 22.7481 12.5352 23.4366 12.5352ZM31.6107 14H33.4198V11.9712H34.848V10.4111H33.4198V3.43115H30.7538C29.3183 5.61377 27.8168 8.04541 26.4472 10.4258V11.9712H31.6107V14ZM28.1977 10.3452C29.2304 8.55078 30.4535 6.59521 31.5375 4.93994H31.64V10.4551H28.1977V10.3452ZM38.8767 14H40.7663V3.43115H38.884L36.1228 5.37207V7.15186L38.7521 5.2915H38.8767V14Z" fill="#171717"/>
</svg>
